<svg width="170" height="140" viewBox="0 0 170 140" fill="none" xmlns="http://www.w3.org/2000/svg">
<path d="M73.15 106.487C72.7167 106.487 72.2667 106.387 71.8 106.187C71.3 106.021 70.9167 105.921 70.65 105.887C70.45 105.821 70.2667 105.671 70.1 105.437C69.9333 105.237 69.85 105.137 69.85 105.137C69.95 104.871 70.05 104.754 70.15 104.787C70.2167 104.821 70.3667 104.821 70.6 104.787C70.6333 104.787 70.6833 104.771 70.75 104.737C70.7833 104.737 70.8167 104.737 70.85 104.737C70.95 104.737 71.0667 104.737 71.2 104.737C71.3 104.771 71.4167 104.787 71.55 104.787C71.7833 104.787 71.9667 104.737 72.1 104.637C72.3667 104.437 72.7 104.154 73.1 103.787C73.5333 103.421 73.8333 103.121 74 102.887C74.0667 102.821 74.1 102.704 74.1 102.537C74.1333 102.371 74.2167 102.304 74.35 102.337C75.0167 101.537 75.6333 100.754 76.2 99.9872C76.8 99.1872 77.4 98.3872 78 97.5872C78.1667 97.1205 78.4 96.6705 78.7 96.2372C79.0333 95.8039 79.35 95.4039 79.65 95.0372C80.3167 94.2705 80.9167 93.4872 81.45 92.6872C81.4167 92.5539 81.5333 92.3372 81.8 92.0372C82.0667 91.7039 82.2333 91.4705 82.3 91.3372C82.2667 91.1705 82.3167 90.8372 82.45 90.3372C82.5833 89.8039 82.7333 89.2705 82.9 88.7372C83.0667 88.1705 83.1667 87.7539 83.2 87.4872C83.1333 87.5205 83.1167 87.4205 83.15 87.1872C83.2167 86.9205 83.2833 86.6205 83.35 86.2872C83.45 85.9539 83.5 85.7372 83.5 85.6372L83.75 83.3872C83.7833 83.2205 83.8 83.0872 83.8 82.9872C83.8 82.8539 83.8 82.7539 83.8 82.6872C83.8 82.4872 83.7833 82.3205 83.75 82.1872C83.75 82.0205 83.7333 81.7872 83.7 81.4872C83.7 81.2205 83.7167 80.9539 83.75 80.6872C83.7833 80.3872 83.8 80.1039 83.8 79.8372C83.8 79.5705 83.7833 79.3872 83.75 79.2872C83.75 79.1539 83.75 79.0539 83.75 78.9872C83.7833 78.9205 83.8 78.8705 83.8 78.8372C83.8 78.7705 83.7333 78.5872 83.6 78.2872C83.5333 78.2872 83.5 78.2372 83.5 78.1372C83.5 78.0039 83.5333 77.8705 83.6 77.7372C83.6667 77.6039 83.7333 77.5705 83.8 77.6372C83.9333 77.7372 84.0667 78.0205 84.2 78.4872C84.3333 78.9539 84.45 79.4372 84.55 79.9372C84.6833 80.4372 84.75 80.8205 84.75 81.0872C84.75 81.1872 84.75 81.2872 84.75 81.3872C84.75 81.4872 84.7667 81.5872 84.8 81.6872C84.8333 81.8872 84.8667 82.1872 84.9 82.5872C84.9667 82.9539 85 83.2372 85 83.4372V83.7872C85 83.9205 85 84.0872 85 84.2872C85 84.4539 84.9833 84.6372 84.95 84.8372C84.9167 85.2705 84.8667 85.6705 84.8 86.0372C84.7667 86.4039 84.75 86.7372 84.75 87.0372C84.75 87.3039 84.7833 87.5372 84.85 87.7372C84.95 87.4705 85.0833 87.2372 85.25 87.0372C85.45 86.8039 85.65 86.6039 85.85 86.4372C85.9167 86.4705 85.95 86.4872 85.95 86.4872C85.95 86.4872 86.0167 86.3872 86.15 86.1872L86.8 85.5872C86.8333 85.5539 86.8833 85.4872 86.95 85.3872C87.0167 85.2539 87.0833 85.2039 87.15 85.2372L87.4 84.8372L88.3 84.2872C88.4 84.1539 88.5167 83.9872 88.65 83.7872C88.8167 83.5872 88.9667 83.4205 89.1 83.2872C89.6 82.8205 90.1333 82.3872 90.7 81.9872C91.2667 81.5872 91.85 81.1872 92.45 80.7872C92.65 80.6539 92.8333 80.5705 93 80.5372C93.2 80.4705 93.3833 80.3705 93.55 80.2372C93.5833 80.2039 93.6333 80.1705 93.7 80.1372C93.7667 80.0705 93.8167 80.0705 93.85 80.1372L94.35 79.8372L94.4 79.8872C94.4667 79.8872 94.7333 79.7539 95.2 79.4872L95.55 79.2872L95.6 79.3372L96.35 78.9872V79.0372C96.65 79.0372 96.85 79.0039 96.95 78.9372L97 78.8372C97.2 78.6705 97.4333 78.5705 97.7 78.5372C98 78.5039 98.2667 78.4372 98.5 78.3372L98.6 78.4372L99.5 78.2372C99.7667 78.2705 99.9833 78.2705 100.15 78.2372C100.35 78.1705 100.55 78.1372 100.75 78.1372C100.817 78.1372 100.883 78.1372 100.95 78.1372C101.05 78.1372 101.167 78.1705 101.3 78.2372C101.367 78.1705 101.467 78.1372 101.6 78.1372C101.833 78.1372 102.1 78.1872 102.4 78.2872C102.733 78.3539 102.95 78.4039 103.05 78.4372L103.65 78.5872C104.383 78.9872 105 79.5039 105.5 80.1372C105.667 80.4039 105.833 80.7205 106 81.0872C106.2 81.4539 106.317 81.7705 106.35 82.0372L106.3 82.4372C106.3 82.5372 106.3 82.6372 106.3 82.7372C106.333 82.8372 106.35 82.9372 106.35 83.0372C106.35 83.7372 106.217 84.4539 105.95 85.1872C105.683 85.8872 105.35 86.5372 104.95 87.1372C104.45 87.8705 103.9 88.5372 103.3 89.1372C102.733 89.7039 102.2 90.2705 101.7 90.8372C101.6 90.8039 101.367 90.9872 101 91.3872C100.633 91.7872 100.367 92.0372 100.2 92.1372C100.2 92.0705 100.183 92.0705 100.15 92.1372C100.15 92.2039 100.15 92.2539 100.15 92.2872L99.3 92.7872C99.3 92.8539 99.1 93.0039 98.7 93.2372C98.3333 93.4372 98.1167 93.5539 98.05 93.5872C97.9167 93.6539 97.8 93.7372 97.7 93.8372C97.6 93.9372 97.4667 94.0205 97.3 94.0872H97.2L96.2 94.5872C96.2 94.5205 96.1833 94.4872 96.15 94.4872C96.1167 94.4872 96.05 94.5372 95.95 94.6372C95.85 94.7372 95.7667 94.7705 95.7 94.7372L95 94.8372C94.9667 94.8372 94.8833 94.8872 94.75 94.9872C94.65 95.0872 94.5833 95.1039 94.55 95.0372L92.85 95.8372C92.5167 95.9039 92.1667 95.9372 91.8 95.9372C91.4667 95.9039 91.1167 95.8872 90.75 95.8872C90.75 95.9205 90.7167 95.9372 90.65 95.9372C90.5833 95.9039 90.55 95.8705 90.55 95.8372C90.35 95.9372 89.9167 95.9872 89.25 95.9872C88.4167 95.9872 87.8 95.9205 87.4 95.7872C87.4 95.8205 87.3667 95.8372 87.3 95.8372C87.2667 95.8372 87.2 95.8205 87.1 95.7872C87.0333 95.7205 86.9667 95.6872 86.9 95.6872C86.7 95.6539 86.4167 95.5039 86.05 95.2372C85.7167 94.9705 85.4167 94.7705 85.15 94.6372C85.1167 94.5705 85.0333 94.5205 84.9 94.4872C84.8 94.4539 84.7333 94.4205 84.7 94.3872C84.6333 94.2539 84.6 94.1872 84.6 94.1872C84.6 94.0205 84.7667 93.9372 85.1 93.9372C85.4333 93.9039 85.6333 93.9039 85.7 93.9372C86.1333 94.1039 86.4333 94.1872 86.6 94.1872C86.7333 94.1872 86.9 94.1872 87.1 94.1872C87.3 94.1539 87.6667 94.1372 88.2 94.1372C88.9667 94.1372 89.75 94.1039 90.55 94.0372C91.3833 93.9705 92.15 93.7705 92.85 93.4372H92.9C92.9667 93.4372 93.0333 93.4205 93.1 93.3872C93.2 93.3205 93.2667 93.3205 93.3 93.3872L93.8 92.9372C93.8333 92.9705 93.8833 92.9705 93.95 92.9372C94.0167 92.9039 94.0667 92.8872 94.1 92.8872L94.7 92.7872C94.7 92.7205 94.75 92.6372 94.85 92.5372C94.9833 92.4372 95.0667 92.4205 95.1 92.4872L95.55 92.3372H95.65L96.1 91.9872H96.15C96.2833 91.9872 96.4167 91.9372 96.55 91.8372C96.6833 91.7039 96.7833 91.6205 96.85 91.5872C96.85 91.5539 96.9 91.5372 97 91.5372C97.1333 91.4705 97.3167 91.3205 97.55 91.0872C97.7833 90.8205 97.9333 90.7539 98 90.8872L98.35 90.6372H98.4C98.5 90.6039 98.5667 90.5539 98.6 90.4872C98.6333 90.3872 98.7167 90.3539 98.85 90.3872C98.9167 90.2872 99.05 90.1539 99.25 89.9872C99.4833 89.7872 99.6 89.6205 99.6 89.4872C99.9333 89.2205 100.283 89.0039 100.65 88.8372C101.017 88.6372 101.267 88.3205 101.4 87.8872C101.433 87.8872 101.567 87.7872 101.8 87.5872C102.033 87.3539 102.267 87.0872 102.5 86.7872C102.767 86.4872 102.967 86.2539 103.1 86.0872C103.133 86.0539 103.2 86.0539 103.3 86.0872C103.433 86.0872 103.567 86.0705 103.7 86.0372C103.833 86.0372 103.967 85.9872 104.1 85.8872C104.233 85.7872 104.217 85.6872 104.05 85.5872C103.883 85.4872 103.767 85.4372 103.7 85.4372C103.633 85.4039 103.617 85.3039 103.65 85.1372C103.683 84.9039 103.75 84.6872 103.85 84.4872C103.95 84.2539 104.05 84.0372 104.15 83.8372L104.45 83.1872C104.517 82.8872 104.533 82.7039 104.5 82.6372C104.5 82.5705 104.5 82.3872 104.5 82.0872C104.5 80.9539 104.183 80.1872 103.55 79.7872C102.95 79.3539 102.15 78.9705 101.15 78.6372C101.117 78.6705 101.067 78.6872 101 78.6872C100.933 78.6539 100.867 78.6372 100.8 78.6372C100.667 78.6039 100.367 78.6205 99.9 78.6872C99.4667 78.7205 99.2167 78.7205 99.15 78.6872C98.9167 78.8205 98.6833 78.8872 98.45 78.8872C98.25 78.8539 98.0167 78.9039 97.75 79.0372C97.7167 79.0039 97.4833 79.0872 97.05 79.2872C96.6167 79.4539 96.35 79.6039 96.25 79.7372C96.0833 79.7705 95.8667 79.8539 95.6 79.9872C95.3667 80.1205 95.2167 80.1705 95.15 80.1372L94.9 80.4372C94.6333 80.4705 94.3167 80.6039 93.95 80.8372C93.5833 81.0372 93.3833 81.1039 93.35 81.0372L92.9 81.3872C92.9333 81.4205 92.95 81.4539 92.95 81.4872C92.95 81.6205 92.85 81.7039 92.65 81.7372C92.45 81.7705 92.3333 81.7872 92.3 81.7872L92.25 81.9372L91.8 82.2372L91.65 82.3872C91.6167 82.4205 91.5667 82.4372 91.5 82.4372C91.4333 82.4039 91.3833 82.4205 91.35 82.4872C91.2167 82.6205 91.05 82.8039 90.85 83.0372C90.65 83.2705 90.4833 83.4205 90.35 83.4872C90.0167 83.6205 89.6833 83.8705 89.35 84.2372C89.0167 84.5705 88.7167 84.8705 88.45 85.1372C88.4167 85.1705 88.2833 85.2705 88.05 85.4372C87.8167 85.6039 87.6667 85.6705 87.6 85.6372C87.5 85.7705 87.35 85.9872 87.15 86.2872C86.95 86.5872 86.7667 86.7705 86.6 86.8372L86.35 87.3872C86.1167 87.4872 85.9333 87.6205 85.8 87.7872C85.6667 87.9539 85.5 88.0705 85.3 88.1372C85.2333 88.4705 85.0667 88.7705 84.8 89.0372C84.5667 89.3039 84.3667 89.5872 84.2 89.8872C84.2667 90.2205 84.3 90.6039 84.3 91.0372C84.3 91.4372 84.2667 91.8372 84.2 92.2372C84.1667 92.6372 84.0667 92.9705 83.9 93.2372V93.2872C83.9 93.4205 83.8333 93.5705 83.7 93.7372C83.5667 93.9039 83.5167 94.1372 83.55 94.4372C83.4167 94.5372 83.2833 94.7872 83.15 95.1872C83.05 95.5872 82.95 95.8872 82.85 96.0872C82.8167 96.1539 82.7167 96.2705 82.55 96.4372C82.4167 96.5705 82.3833 96.6705 82.45 96.7372C82.15 97.1039 81.95 97.5372 81.85 98.0372C81.75 98.5039 81.55 98.9205 81.25 99.2872L81.15 99.1872C81.1167 99.3205 81.0833 99.4372 81.05 99.5372C81.0167 99.6372 80.95 99.7539 80.85 99.8872C80.8167 99.9539 80.7 100.154 80.5 100.487C80.3 100.787 80.1 101.087 79.9 101.387C79.7 101.687 79.5833 101.837 79.55 101.837L79.3 102.337C79.2 102.337 79.0833 102.387 78.95 102.487C78.85 102.587 78.7667 102.671 78.7 102.737C78.7333 102.871 78.65 103.037 78.45 103.237C78.25 103.471 78.1167 103.521 78.05 103.387C77.75 103.687 77.5 104.004 77.3 104.337C77.1 104.671 76.7833 104.971 76.35 105.237C76.25 105.271 75.9833 105.387 75.55 105.587C75.1167 105.787 74.9 105.921 74.9 105.987L74.45 106.237C74.4167 106.204 74.3167 106.254 74.15 106.387C74.0167 106.554 73.8833 106.554 73.75 106.387C73.65 106.421 73.55 106.437 73.45 106.437C73.35 106.471 73.25 106.487 73.15 106.487ZM74 104.587C74.1 104.587 74.2167 104.521 74.35 104.387H74.4C74.5 104.387 74.6167 104.304 74.75 104.137C74.8833 103.971 74.9667 103.854 75 103.787C75.1667 103.721 75.3 103.637 75.4 103.537C75.5333 103.437 75.6333 103.337 75.7 103.237L77 101.987C77.5 101.487 77.9 101.004 78.2 100.537C78.5 100.071 78.8 99.5539 79.1 98.9872C79.1667 98.8872 79.3 98.6372 79.5 98.2372C79.7333 97.8372 79.9 97.6372 80 97.6372C80.3667 96.9705 80.6333 96.3372 80.8 95.7372C81 95.1039 81.25 94.4372 81.55 93.7372L81.4 93.5372C81.3333 93.6372 81.2167 93.7705 81.05 93.9372C80.8833 94.1039 80.8167 94.2705 80.85 94.4372C80.7833 94.4705 80.5833 94.7205 80.25 95.1872C79.95 95.6205 79.5833 96.1539 79.15 96.7872C78.75 97.3872 78.3333 98.0039 77.9 98.6372C77.5 99.2705 77.15 99.8205 76.85 100.287C76.5833 100.754 76.4333 101.021 76.4 101.087C76.2667 101.187 76.15 101.321 76.05 101.487C75.95 101.654 75.8667 101.821 75.8 101.987L75.75 101.937C75.55 102.171 75.25 102.554 74.85 103.087C74.4833 103.621 74.1833 103.971 73.95 104.137C73.9167 104.237 73.9 104.337 73.9 104.437C73.9 104.537 73.9333 104.587 74 104.587ZM111.059 102.787C110.859 102.787 110.759 102.671 110.759 102.437C110.759 102.271 110.809 102.071 110.909 101.837C111.175 101.271 111.475 100.471 111.809 99.4372C112.175 98.4039 112.625 97.5205 113.159 96.7872C113.525 96.0539 113.859 95.3372 114.159 94.6372C114.492 93.9039 114.809 93.1705 115.109 92.4372C115.109 92.4372 115.075 92.4205 115.009 92.3872C114.942 92.3205 114.909 92.2539 114.909 92.1872C114.742 92.0539 114.542 91.8705 114.309 91.6372C114.075 91.3705 114.059 91.1039 114.259 90.8372C114.325 90.7705 114.359 90.7372 114.359 90.7372C114.392 90.7372 114.409 90.7372 114.409 90.7372C114.409 90.7039 114.392 90.6872 114.359 90.6872C114.359 90.6872 114.359 90.6705 114.359 90.6372L114.309 90.5872C114.275 90.5872 114.242 90.5872 114.209 90.5872C114.209 90.5539 114.192 90.5372 114.159 90.5372C114.025 90.5372 113.875 90.5705 113.709 90.6372C113.542 90.6705 113.375 90.6872 113.209 90.6872C113.009 90.6872 112.742 90.7705 112.409 90.9372C112.075 91.0705 111.775 91.1872 111.509 91.2872C111.375 91.3205 111.292 91.3372 111.259 91.3372C111.259 91.3039 111.192 91.3205 111.059 91.3872C111.025 91.4205 111.025 91.3705 111.059 91.2372C111.125 91.0705 111.159 90.9539 111.159 90.8872C111.159 90.8539 111.142 90.8372 111.109 90.8372C111.042 90.8372 110.909 90.9372 110.709 91.1372C110.509 91.3039 110.375 91.4039 110.309 91.4372C110.275 91.4705 110.259 91.5205 110.259 91.5872C110.292 91.6539 110.309 91.7205 110.309 91.7872C110.309 91.8872 110.225 92.0039 110.059 92.1372C109.892 92.2372 109.775 92.3205 109.709 92.3872C109.575 92.4872 109.409 92.5539 109.209 92.5872C109.042 92.5872 108.875 92.6539 108.709 92.7872C108.509 92.9205 108.409 93.0205 108.409 93.0872C108.442 93.1539 108.342 93.2705 108.109 93.4372C107.809 93.6705 107.392 94.0205 106.859 94.4872C106.359 94.9539 105.975 95.3705 105.709 95.7372C105.075 96.5039 104.492 97.3872 103.959 98.3872C103.459 99.3872 103.209 100.171 103.209 100.737C103.209 101.171 103.392 101.387 103.759 101.387C103.825 101.387 103.892 101.387 103.959 101.387C104.025 101.354 104.109 101.321 104.209 101.287L105.509 100.537L105.809 100.487V100.437L106.009 100.587C106.042 100.554 106.025 100.504 105.959 100.437C105.925 100.337 105.925 100.287 105.959 100.287C105.992 100.287 106.009 100.304 106.009 100.337C106.042 100.337 106.075 100.337 106.109 100.337L106.209 100.187C106.209 100.187 106.259 100.204 106.359 100.237C106.492 100.237 106.592 100.204 106.659 100.137C106.759 100.104 106.775 100.054 106.709 99.9872C106.675 99.9205 106.625 99.8705 106.559 99.8372L106.909 99.5372C106.942 99.4705 107.075 99.4039 107.309 99.3372C107.875 98.9705 108.342 98.5372 108.709 98.0372C109.109 97.5039 109.559 97.0205 110.059 96.5872H110.109L110.709 95.9872L110.659 95.8372L111.309 95.0872H111.409C111.442 95.0205 111.509 94.9372 111.609 94.8372C111.742 94.7372 111.825 94.6539 111.859 94.5872C111.925 94.5539 112.075 94.3872 112.309 94.0872C112.575 93.7539 112.825 93.4872 113.059 93.2872C113.325 93.0872 113.475 92.9872 113.509 92.9872C113.542 92.9872 113.559 93.0039 113.559 93.0372C113.559 93.1372 113.509 93.2872 113.409 93.4872C113.342 93.6872 113.275 93.8205 113.209 93.8872C112.975 94.2539 112.675 94.6705 112.309 95.1372C111.942 95.5705 111.725 95.8372 111.659 95.9372C111.259 96.3705 110.775 96.9539 110.209 97.6872C109.642 98.3872 109.025 99.0872 108.359 99.7872C107.692 100.487 107.025 101.087 106.359 101.587C105.725 102.054 105.125 102.287 104.559 102.287C104.025 102.287 103.459 102.121 102.859 101.787C102.259 101.454 101.959 100.821 101.959 99.8872C101.959 99.5872 101.992 99.2539 102.059 98.8872C102.159 98.4872 102.309 98.0705 102.509 97.6372C102.509 97.6372 102.542 97.6039 102.609 97.5372C102.675 97.4372 102.725 97.4039 102.759 97.4372C102.825 97.3372 102.842 97.2372 102.809 97.1372C102.809 97.0039 102.809 96.9205 102.809 96.8872L102.909 96.7872C102.975 96.4205 103.225 96.0872 103.659 95.7872C104.092 95.4872 104.325 95.2539 104.359 95.0872C104.392 95.0539 104.409 95.0039 104.409 94.9372L104.609 94.2872V94.0872H104.809L104.959 93.8872L105.009 93.7872C104.942 93.7539 104.959 93.7039 105.059 93.6372C105.192 93.5372 105.259 93.4872 105.259 93.4872C105.292 93.4205 105.325 93.3705 105.359 93.3372C105.425 93.3039 105.475 93.2705 105.509 93.2372H105.859C105.925 93.1372 105.892 93.0872 105.759 93.0872C105.625 93.0872 105.559 93.0872 105.559 93.0872C105.559 93.0539 105.559 93.0372 105.559 93.0372C105.592 93.0039 105.609 92.9705 105.609 92.9372L106.159 92.4872C106.325 92.3539 106.492 92.2372 106.659 92.1372C106.825 92.0372 106.975 91.9205 107.109 91.7872C107.209 91.7872 107.225 91.8372 107.159 91.9372C107.192 92.0039 107.225 92.0039 107.259 91.9372C107.325 91.8705 107.359 91.8372 107.359 91.8372L107.609 91.7872V91.7372C107.609 91.6705 107.625 91.5705 107.659 91.4372C107.692 91.3039 107.709 91.2205 107.709 91.1872C108.409 90.6539 109.142 90.1872 109.909 89.7872C110.675 89.3539 111.425 89.1372 112.159 89.1372C113.025 89.1372 113.809 89.4705 114.509 90.1372L114.759 90.2872C114.792 90.2872 114.809 90.2705 114.809 90.2372C114.875 89.7705 115.259 89.4205 115.959 89.1872C116.692 88.9539 117.342 88.8372 117.909 88.8372C118.509 88.8372 118.809 88.9205 118.809 89.0872C118.809 89.1539 118.709 89.2705 118.509 89.4372C118.409 89.5039 118.242 89.6539 118.009 89.8872C117.775 90.1205 117.542 90.4039 117.309 90.7372C117.275 90.8372 117.225 90.9372 117.159 91.0372C117.092 91.1372 117.025 91.2372 116.959 91.3372C116.925 91.4039 116.875 91.4872 116.809 91.5872C116.775 91.6539 116.725 91.7205 116.659 91.7872C116.092 92.7539 115.642 93.5705 115.309 94.2372C114.975 94.9039 114.575 95.7539 114.109 96.7872C114.042 96.9872 114.009 97.1039 114.009 97.1372C114.009 97.4039 114.159 97.5372 114.459 97.5372C114.659 97.5372 114.859 97.4872 115.059 97.3872L115.559 97.1872C116.359 96.4539 117.192 95.8372 118.059 95.3372C118.092 95.3372 118.109 95.3372 118.109 95.3372C118.142 95.3039 118.175 95.2872 118.209 95.2872C118.309 95.2872 118.375 95.3539 118.409 95.4872C118.442 95.5872 118.409 95.6705 118.309 95.7372C117.342 96.2705 116.442 96.9539 115.609 97.7872C115.575 97.8539 115.542 97.9205 115.509 97.9872C115.475 98.0539 115.425 98.1205 115.359 98.1872C115.259 98.2539 115.159 98.3705 115.059 98.5372C114.959 98.7039 114.909 98.8039 114.909 98.8372C114.875 98.9372 114.825 98.9705 114.759 98.9372C114.725 98.9039 114.625 98.9539 114.459 99.0872C114.425 99.1205 114.392 99.1872 114.359 99.2872C114.359 99.3872 114.342 99.4705 114.309 99.5372C114.242 99.6372 114.175 99.7205 114.109 99.7872C114.042 99.8205 114.009 99.8539 114.009 99.8872C113.975 100.021 113.909 100.104 113.809 100.137C113.742 100.137 113.675 100.171 113.609 100.237C113.575 100.237 113.559 100.254 113.559 100.287C113.559 100.587 113.525 100.721 113.459 100.687C113.392 100.654 113.325 100.687 113.259 100.787C113.192 100.921 113.109 100.987 113.009 100.987C112.809 101.054 112.725 101.104 112.759 101.137C112.825 101.171 112.875 101.204 112.909 101.237C112.975 101.237 112.925 101.287 112.759 101.387C112.692 101.421 112.625 101.521 112.559 101.687C112.492 101.821 112.425 101.921 112.359 101.987C112.259 102.054 112.159 102.104 112.059 102.137C111.959 102.171 111.875 102.237 111.809 102.337C111.509 102.637 111.259 102.787 111.059 102.787ZM119.681 102.537C119.348 102.537 118.998 102.471 118.631 102.337C118.265 102.171 118.131 101.987 118.231 101.787C118.365 101.521 118.515 101.254 118.681 100.987C118.881 100.687 119.065 100.371 119.231 100.037L119.781 98.9872C119.848 98.8205 119.915 98.7039 119.981 98.6372C120.081 98.5372 120.165 98.4205 120.231 98.2872C120.265 98.2539 120.281 98.1705 120.281 98.0372C120.281 97.8705 120.348 97.6872 120.481 97.4872C120.648 97.2539 120.765 97.0372 120.831 96.8372C120.865 96.8039 120.898 96.9039 120.931 97.1372C120.965 97.3705 121.048 97.3539 121.181 97.0872C121.215 97.0539 121.198 97.0039 121.131 96.9372C121.098 96.8705 121.081 96.8039 121.081 96.7372C121.081 96.6705 121.098 96.6372 121.131 96.6372C121.198 96.6039 121.231 96.5705 121.231 96.5372C121.265 96.4372 121.231 96.4039 121.131 96.4372C121.065 96.4372 121.031 96.4205 121.031 96.3872C121.098 96.2872 121.165 96.2205 121.231 96.1872C121.331 96.1539 121.398 96.1039 121.431 96.0372C121.431 95.9705 121.398 95.9372 121.331 95.9372C121.298 95.9039 121.298 95.8705 121.331 95.8372C121.498 95.3705 121.681 94.8205 121.881 94.1872C122.081 93.5539 122.231 92.9705 122.331 92.4372C122.331 92.4372 122.298 92.4205 122.231 92.3872C122.165 92.3205 122.131 92.2539 122.131 92.1872L121.781 91.9372C121.381 92.3039 120.948 92.6205 120.481 92.8872C120.448 92.9205 120.381 92.9372 120.281 92.9372C120.148 92.9372 120.065 92.8705 120.031 92.7372C119.998 92.6039 120.048 92.4872 120.181 92.3872C120.348 92.2872 120.481 92.2205 120.581 92.1872C120.681 92.1205 120.798 92.0205 120.931 91.8872C120.998 91.8205 121.031 91.7539 121.031 91.6872C121.065 91.6205 121.098 91.5539 121.131 91.4872L121.331 91.2372C121.331 91.0705 121.365 90.9372 121.431 90.8372C121.498 90.7705 121.548 90.7372 121.581 90.7372C121.615 90.7372 121.631 90.7372 121.631 90.7372V90.6372C121.631 90.5039 121.681 90.4205 121.781 90.3872C121.915 90.3539 121.981 90.3039 121.981 90.2372C122.048 89.7705 122.448 89.4205 123.181 89.1872C123.915 88.9539 124.565 88.8372 125.131 88.8372C125.698 88.8372 125.981 88.9205 125.981 89.0872C125.981 89.1872 125.881 89.3039 125.681 89.4372C125.581 89.5039 125.415 89.6539 125.181 89.8872C124.948 90.1205 124.731 90.4039 124.531 90.7372L124.181 91.3372L123.831 91.7872C123.598 92.3205 123.265 93.1372 122.831 94.2372C122.398 95.3372 121.948 96.7205 121.481 98.3872C121.581 98.2539 121.815 97.9705 122.181 97.5372C122.548 97.1039 122.981 96.6039 123.481 96.0372C123.981 95.4705 124.465 94.9372 124.931 94.4372C125.398 93.9039 125.781 93.4872 126.081 93.1872L126.331 93.0372C126.398 92.9705 126.465 92.8872 126.531 92.7872C126.631 92.6539 126.715 92.5539 126.781 92.4872C126.815 92.4539 126.831 92.5205 126.831 92.6872C126.865 92.8205 126.898 92.8705 126.931 92.8372C127.065 92.7372 127.131 92.5872 127.131 92.3872C127.165 92.1872 127.248 92.0539 127.381 91.9872C127.748 91.6872 128.248 91.2705 128.881 90.7372C129.548 90.1705 130.231 89.8372 130.931 89.7372C130.998 89.6705 131.098 89.6539 131.231 89.6872C131.398 89.6872 131.515 89.6705 131.581 89.6372C131.648 89.6372 131.698 89.6205 131.731 89.5872C131.765 89.5539 131.848 89.5372 131.981 89.5372C132.048 89.5372 132.181 89.5872 132.381 89.6872C132.615 89.7872 132.748 89.9205 132.781 90.0872C132.981 90.2205 133.081 90.4205 133.081 90.6872C133.081 91.1539 132.831 91.5039 132.331 91.7372C132.165 91.9039 131.981 92.0705 131.781 92.2372C131.581 92.3705 131.381 92.5205 131.181 92.6872C131.115 92.7539 131.065 92.7872 131.031 92.7872C130.798 92.9872 130.598 93.2039 130.431 93.4372C130.265 93.6705 130.181 93.9705 130.181 94.3372C130.181 94.3705 130.215 94.4205 130.281 94.4872C130.348 94.5205 130.365 94.5539 130.331 94.5872C130.431 94.6872 130.581 94.7539 130.781 94.7872C130.981 94.7872 131.181 94.7872 131.381 94.7872C131.715 94.7872 132.215 94.6539 132.881 94.3872H132.981C133.015 94.3872 133.031 94.4039 133.031 94.4372C133.031 94.5039 132.965 94.6205 132.831 94.7872C132.698 94.9205 132.548 95.0205 132.381 95.0872C132.015 95.2205 131.631 95.3039 131.231 95.3372C130.831 95.3372 130.548 95.3372 130.381 95.3372C129.781 95.3372 129.398 95.2205 129.231 94.9872C129.098 94.7539 128.965 94.4705 128.831 94.1372V93.8872L129.081 93.6372C129.048 93.5372 128.998 93.4372 128.931 93.3372C128.865 93.2372 128.831 93.1205 128.831 92.9872C128.831 92.6539 128.965 92.2705 129.231 91.8372C128.865 91.9372 128.398 92.2205 127.831 92.6872C127.298 93.1205 126.748 93.6372 126.181 94.2372C125.615 94.8039 125.098 95.3705 124.631 95.9372C124.165 96.4705 123.798 96.9039 123.531 97.2372C123.431 97.3705 123.315 97.4539 123.181 97.4872C123.081 97.4872 122.998 97.5372 122.931 97.6372C122.898 97.6705 122.931 97.6872 123.031 97.6872C123.165 97.6872 123.215 97.7039 123.181 97.7372C122.748 98.4039 122.281 99.1372 121.781 99.9372C121.315 100.737 120.848 101.521 120.381 102.287C120.281 102.454 120.048 102.537 119.681 102.537ZM135.426 102.737C134.593 102.737 133.86 102.504 133.226 102.037C132.593 101.571 132.276 100.771 132.276 99.6372C132.276 99.2039 132.326 98.7705 132.426 98.3372C132.526 97.8705 132.643 97.4205 132.776 96.9872C132.843 96.5539 132.943 96.1705 133.076 95.8372C133.11 95.7039 133.126 95.6372 133.126 95.6372C133.16 95.6039 133.243 95.5539 133.376 95.4872L133.776 94.8872V94.6872C133.743 94.6872 133.726 94.6872 133.726 94.6872C133.726 94.6539 133.726 94.6372 133.726 94.6372C133.726 94.5372 133.81 94.4205 133.976 94.2872C134.143 94.1539 134.226 94.0872 134.226 94.0872C134.26 93.9205 134.31 93.8372 134.376 93.8372C134.443 93.8372 134.526 93.7872 134.626 93.6872H135.176V93.5872C135.176 93.4205 135.093 93.3539 134.926 93.3872C134.793 93.3872 134.726 93.3705 134.726 93.3372C134.726 93.3039 134.776 93.2372 134.876 93.1372C135.01 93.0039 135.093 92.9205 135.126 92.8872C135.226 92.7539 135.31 92.6372 135.376 92.5372C135.443 92.4039 135.543 92.3039 135.676 92.2372C136.276 91.5039 136.643 91.0372 136.776 90.8372C136.943 90.6372 137.11 90.4872 137.276 90.3872C137.343 90.3872 137.393 90.4205 137.426 90.4872C137.493 90.5205 137.493 90.5705 137.426 90.6372C137.493 90.7372 137.543 90.7539 137.576 90.6872C137.643 90.6205 137.676 90.5872 137.676 90.5872L137.876 90.4872C137.81 90.4205 137.776 90.3372 137.776 90.2372C137.776 90.0705 137.81 89.9372 137.876 89.8372C137.943 89.7039 138.06 89.5705 138.226 89.4372C138.426 89.3039 138.526 89.2205 138.526 89.1872C138.726 89.1205 138.876 89.0539 138.976 88.9872C139.11 88.9205 139.243 88.8872 139.376 88.8872C139.61 88.8872 139.843 88.9705 140.076 89.1372C140.71 89.4705 141.243 89.8039 141.676 90.1372C142.11 90.4705 142.326 90.9372 142.326 91.5372C142.326 92.1705 142.06 92.7205 141.526 93.1872C141.026 93.6205 140.41 93.9872 139.676 94.2872C138.943 94.5872 138.21 94.8372 137.476 95.0372C136.776 95.2039 136.226 95.3372 135.826 95.4372C135.593 95.4705 135.476 95.5705 135.476 95.7372C135.51 95.8705 135.493 96.0205 135.426 96.1872L135.076 96.7372L134.776 97.4372L134.526 97.8872C134.293 98.0872 134.21 98.2372 134.276 98.3372C134.343 98.4372 134.46 98.4205 134.626 98.2872C134.66 98.3205 134.676 98.3705 134.676 98.4372C134.676 98.5705 134.643 98.7372 134.576 98.9372C134.51 99.1039 134.46 99.2372 134.426 99.3372C134.393 99.4705 134.393 99.5372 134.426 99.5372C134.493 99.5039 134.526 99.5705 134.526 99.7372L134.576 100.437C134.776 101.071 135.226 101.437 135.926 101.537C135.993 101.537 136.06 101.554 136.126 101.587C136.226 101.587 136.31 101.587 136.376 101.587C136.976 101.587 137.293 101.537 137.326 101.437C137.393 101.337 137.476 101.271 137.576 101.237C137.876 101.171 138.126 101.104 138.326 101.037C138.56 100.971 138.793 100.871 139.026 100.737C139.426 100.571 139.81 100.354 140.176 100.087C140.543 99.8205 140.926 99.5539 141.326 99.2872L141.826 98.9372C141.86 98.8705 141.86 98.8205 141.826 98.7872C141.793 98.7539 141.793 98.7205 141.826 98.6872C141.893 98.6539 141.943 98.6539 141.976 98.6872C142.043 98.6872 142.093 98.6705 142.126 98.6372C142.193 98.6039 142.26 98.5539 142.326 98.4872C142.393 98.3872 142.46 98.3039 142.526 98.2372C142.593 98.1705 142.626 98.1039 142.626 98.0372C142.66 97.9705 142.71 97.9039 142.776 97.8372C143.043 97.5705 143.31 97.2872 143.576 96.9872C143.876 96.6872 144.126 96.4205 144.326 96.1872C144.56 95.8539 144.743 95.6872 144.876 95.6872C144.943 95.6872 144.976 95.7205 144.976 95.7872C144.976 95.9539 144.86 96.2039 144.626 96.5372C144.06 97.3705 143.41 98.1872 142.676 98.9872C141.943 99.7539 141.143 100.454 140.276 101.087C139.643 101.521 138.893 101.904 138.026 102.237C137.16 102.571 136.293 102.737 135.426 102.737ZM136.176 94.6872C136.676 94.6539 137.326 94.5205 138.126 94.2872C138.926 94.0205 139.593 93.6705 140.126 93.2372C140.693 92.7705 140.976 92.2539 140.976 91.6872C140.976 91.1539 140.693 90.6372 140.126 90.1372C139.66 90.4705 139.143 90.9539 138.576 91.5872C138.043 92.1872 137.56 92.7872 137.126 93.3872C136.693 93.9539 136.376 94.3872 136.176 94.6872ZM145.51 102.787C145.31 102.787 145.21 102.671 145.21 102.437C145.21 102.271 145.26 102.071 145.36 101.837C145.627 101.271 145.927 100.471 146.26 99.4372C146.627 98.4039 147.077 97.5205 147.61 96.7872L150.11 91.6372C149.91 91.6372 149.71 91.6872 149.51 91.7872C149.343 91.8872 149.26 91.9705 149.26 92.0372C149.26 92.1705 149.077 92.3039 148.71 92.4372C148.343 92.5705 148.143 92.6539 148.11 92.6872C147.61 92.8205 147.143 92.9705 146.71 93.1372C146.377 93.5039 146.043 93.8705 145.71 94.2372C145.41 94.6039 145.127 94.9705 144.86 95.3372C144.827 95.3705 144.793 95.3872 144.76 95.3872C144.46 95.7205 144.21 95.9705 144.01 96.1372C143.81 96.3039 143.593 96.4539 143.36 96.5872C143.227 96.6872 143.093 96.7205 142.96 96.6872C142.793 96.6205 142.777 96.5539 142.91 96.4872C143.077 96.4205 143.343 96.1872 143.71 95.7872C144.077 95.3872 144.36 95.0872 144.56 94.8872C144.727 94.7872 144.777 94.7872 144.71 94.8872C144.677 94.9872 144.727 94.9705 144.86 94.8372L146.11 93.2372L146.16 93.1872C145.993 93.0872 145.91 92.8205 145.91 92.3872C145.91 92.0539 145.977 91.7872 146.11 91.5872C146.11 91.5539 146.143 91.5372 146.21 91.5372L147.26 91.2372C147.36 91.2372 147.427 91.2205 147.46 91.1872C147.527 91.1205 147.593 91.0372 147.66 90.9372C147.76 90.8039 147.877 90.6372 148.01 90.4372L148.61 89.6372L149.01 89.0872C149.01 88.9872 149.077 88.8705 149.21 88.7372C149.377 88.5705 149.51 88.4539 149.61 88.3872C149.743 88.1872 149.827 88.0372 149.86 87.9372C149.927 87.8039 150.027 87.6372 150.16 87.4372C150.16 87.4039 150.21 87.3872 150.31 87.3872C150.41 87.3539 150.46 87.3205 150.46 87.2872C150.493 86.9539 150.543 86.8039 150.61 86.8372C150.71 86.8372 150.76 86.7872 150.76 86.6872C150.76 86.5872 150.827 86.5039 150.96 86.4372L151.21 86.1372C151.21 86.1039 151.26 86.0372 151.36 85.9372V85.8872C151.36 85.8205 151.36 85.7372 151.36 85.6372C151.36 85.5372 151.393 85.4372 151.46 85.3372C151.527 85.2705 151.577 85.2372 151.61 85.2372C151.643 85.2372 151.66 85.2372 151.66 85.2372C151.66 85.2039 151.643 85.1872 151.61 85.1872C151.61 85.1539 151.61 85.1372 151.61 85.1372C151.61 85.0039 151.677 84.9205 151.81 84.8872C151.943 84.8539 152.01 84.8039 152.01 84.7372C152.077 84.2705 152.477 83.9205 153.21 83.6872C153.943 83.4539 154.593 83.3372 155.16 83.3372C155.727 83.3372 156.01 83.4205 156.01 83.5872C156.01 83.6539 155.91 83.7705 155.71 83.9372C155.61 83.9705 155.443 84.1205 155.21 84.3872C154.977 84.6205 154.76 84.9039 154.56 85.2372L154.16 85.8372C154.127 85.9039 154.077 85.9872 154.01 86.0872C153.977 86.1539 153.927 86.2205 153.86 86.2872C153.627 86.6872 153.31 87.2539 152.91 87.9872C152.543 88.6872 152.143 89.4705 151.71 90.3372L153.01 90.1872C153.11 90.1872 153.143 90.2039 153.11 90.2372C153.11 90.2705 153.16 90.2705 153.26 90.2372C153.427 90.2372 153.543 90.2205 153.61 90.1872C153.677 90.1205 153.793 90.0705 153.96 90.0372C154.227 90.0039 154.527 89.9872 154.86 89.9872C155.227 89.9539 155.51 89.9372 155.71 89.9372C155.843 89.9372 156.01 89.9372 156.21 89.9372C156.41 89.9372 156.56 89.9539 156.66 89.9872C156.727 89.9872 156.743 90.0205 156.71 90.0872C156.71 90.1205 156.727 90.1372 156.76 90.1372C156.827 90.1372 156.877 90.1205 156.91 90.0872C156.977 90.0539 157.043 90.0372 157.11 90.0372C157.143 90.0039 157.193 90.0039 157.26 90.0372C157.36 90.0372 157.427 90.0372 157.46 90.0372L157.96 90.1872C158.16 90.2205 158.26 90.3372 158.26 90.5372C158.293 90.7372 158.21 90.8039 158.01 90.7372C157.877 90.6705 157.76 90.6372 157.66 90.6372H156.41C156.177 90.6372 155.96 90.6372 155.76 90.6372C155.56 90.6372 155.36 90.6539 155.16 90.6872C155.093 90.7205 155.06 90.6872 155.06 90.5872C155.093 90.4872 155.077 90.4372 155.01 90.4372C154.977 90.4372 154.927 90.4872 154.86 90.5872C154.793 90.6539 154.743 90.6872 154.71 90.6872L154.46 90.8372C153.927 90.9705 153.36 91.1205 152.76 91.2872C152.16 91.4205 151.577 91.5705 151.01 91.7372C150.51 92.7705 150.027 93.7539 149.56 94.6872C149.127 95.5872 148.793 96.2872 148.56 96.7872C148.493 96.9872 148.46 97.1039 148.46 97.1372C148.46 97.4039 148.61 97.5372 148.91 97.5372C149.11 97.5372 149.31 97.4872 149.51 97.3872L150.01 97.1872C150.81 96.4539 151.643 95.8372 152.51 95.3372C152.543 95.3372 152.56 95.3372 152.56 95.3372C152.593 95.3039 152.627 95.2872 152.66 95.2872C152.76 95.2872 152.827 95.3539 152.86 95.4872C152.893 95.5872 152.86 95.6705 152.76 95.7372C151.793 96.2705 150.893 96.9539 150.06 97.7872C150.027 97.8539 149.993 97.9205 149.96 97.9872C149.927 98.0539 149.877 98.1205 149.81 98.1872C149.743 98.2539 149.643 98.3705 149.51 98.5372C149.41 98.7039 149.36 98.8039 149.36 98.8372C149.327 98.9372 149.277 98.9705 149.21 98.9372C149.177 98.9039 149.077 98.9539 148.91 99.0872C148.877 99.1205 148.843 99.1872 148.81 99.2872C148.81 99.3872 148.793 99.4705 148.76 99.5372C148.693 99.6372 148.627 99.7205 148.56 99.7872C148.493 99.8205 148.46 99.8539 148.46 99.8872C148.427 100.021 148.36 100.104 148.26 100.137C148.193 100.137 148.127 100.171 148.06 100.237C148.027 100.237 148.01 100.254 148.01 100.287C148.01 100.587 147.977 100.721 147.91 100.687C147.843 100.654 147.793 100.687 147.76 100.787C147.627 100.921 147.527 100.987 147.46 100.987C147.26 101.054 147.177 101.104 147.21 101.137C147.277 101.171 147.327 101.204 147.36 101.237C147.427 101.237 147.377 101.287 147.21 101.387C147.143 101.421 147.077 101.521 147.01 101.687C146.943 101.821 146.877 101.921 146.81 101.987C146.71 102.054 146.61 102.104 146.51 102.137C146.41 102.171 146.327 102.237 146.26 102.337C145.96 102.637 145.71 102.787 145.51 102.787ZM148.36 91.0372C148.493 91.0039 148.61 90.9705 148.71 90.9372C148.843 90.9039 148.977 90.8539 149.11 90.7872L150.61 90.5372C151.01 89.7372 151.36 89.0205 151.66 88.3872C151.96 87.7205 152.177 87.2372 152.31 86.9372C152.31 86.9372 152.277 86.9205 152.21 86.8872C152.177 86.8205 152.16 86.7539 152.16 86.6872C152.093 86.6539 152.01 86.6039 151.91 86.5372C151.843 86.4705 151.777 86.4205 151.71 86.3872L151.26 86.8372L150.71 87.5872C150.71 87.6205 150.66 87.6539 150.56 87.6872C150.493 87.6872 150.46 87.7039 150.46 87.7372C150.46 87.8372 150.41 87.9372 150.31 88.0372C150.243 88.1372 150.177 88.1705 150.11 88.1372L149.91 88.6372C149.91 88.7372 149.86 88.8205 149.76 88.8872L149.41 89.3372C149.41 89.3705 149.393 89.4039 149.36 89.4372C149.36 89.4372 149.36 89.4705 149.36 89.5372C149.327 89.6039 149.277 89.6872 149.21 89.7872C149.143 89.8872 149.06 89.9872 148.96 90.0872C148.927 90.0872 148.91 90.1039 148.91 90.1372C148.91 90.1372 148.893 90.1372 148.86 90.1372L148.71 90.4372C148.577 90.5039 148.493 90.5372 148.46 90.5372L148.41 90.6372C148.41 90.8372 148.393 90.9705 148.36 91.0372ZM159.388 102.837C159.355 102.837 159.305 102.804 159.238 102.737C159.172 102.704 159.122 102.687 159.088 102.687C158.955 102.721 158.838 102.737 158.738 102.737C158.638 102.737 158.538 102.737 158.438 102.737C158.405 102.737 158.372 102.721 158.338 102.687C158.338 102.654 158.322 102.637 158.288 102.637C158.255 102.637 158.238 102.637 158.238 102.637C158.272 102.671 158.272 102.687 158.238 102.687C158.238 102.687 158.205 102.671 158.138 102.637C158.072 102.604 158.022 102.587 157.988 102.587L157.938 102.537C157.872 102.537 157.822 102.521 157.788 102.487C157.788 102.454 157.772 102.437 157.738 102.437L157.688 102.487L157.638 102.437C157.572 102.404 157.472 102.371 157.338 102.337C157.238 102.271 157.155 102.221 157.088 102.187C157.022 102.187 156.938 102.137 156.838 102.037H156.738C156.672 101.937 156.555 101.871 156.388 101.837C156.388 101.804 156.372 101.771 156.338 101.737H156.288C156.222 101.637 156.172 101.604 156.138 101.637C156.105 101.571 156.055 101.521 155.988 101.487C155.955 101.421 155.905 101.371 155.838 101.337C155.838 101.204 155.805 101.137 155.738 101.137C155.738 101.071 155.672 100.971 155.538 100.837C155.438 100.704 155.372 100.587 155.338 100.487L155.288 100.437C155.155 100.304 155.055 100.087 154.988 99.7872C154.955 99.6539 154.922 99.6039 154.888 99.6372C154.888 99.6705 154.872 99.5872 154.838 99.3872C154.838 99.3539 154.838 99.3039 154.838 99.2372C154.872 99.1372 154.872 99.0705 154.838 99.0372C154.838 99.0039 154.822 98.9872 154.788 98.9872C154.788 98.9539 154.788 98.9205 154.788 98.8872C154.755 98.8539 154.738 98.8372 154.738 98.8372C154.772 98.8039 154.788 98.7872 154.788 98.7872C154.788 98.7205 154.772 98.6872 154.738 98.6872C154.738 98.6539 154.738 98.6205 154.738 98.5872V98.4872C154.738 98.3205 154.772 98.2039 154.838 98.1372C154.838 98.0705 154.855 98.0205 154.888 97.9872C154.922 97.9539 154.938 97.9205 154.938 97.8872C154.938 97.8205 154.972 97.7872 155.038 97.7872C155.105 97.7872 155.138 97.7705 155.138 97.7372C155.138 97.6705 155.155 97.6372 155.188 97.6372C155.255 97.6039 155.305 97.5705 155.338 97.5372C155.338 97.5039 155.355 97.4705 155.388 97.4372C155.455 97.4039 155.488 97.3705 155.488 97.3372C155.655 97.2372 155.838 97.1872 156.038 97.1872C156.438 97.1872 156.638 97.2872 156.638 97.4872C156.638 97.5539 156.538 97.6705 156.338 97.8372C156.305 97.9372 156.288 98.0039 156.288 98.0372C156.322 98.0372 156.305 98.0705 156.238 98.1372C156.272 98.2372 156.288 98.3705 156.288 98.5372C156.255 98.5372 156.238 98.5872 156.238 98.6872C156.272 98.7539 156.288 98.7872 156.288 98.7872C156.288 98.8205 156.305 98.9205 156.338 99.0872C156.405 99.2539 156.455 99.3539 156.488 99.3872C156.488 99.3872 156.522 99.4705 156.588 99.6372C156.655 99.7705 156.688 99.8539 156.688 99.8872V99.9872C156.755 100.087 156.788 100.154 156.788 100.187C156.822 100.187 156.955 100.254 157.188 100.387C157.222 100.421 157.288 100.437 157.388 100.437C157.555 100.537 157.672 100.621 157.738 100.687C157.838 100.754 158.072 100.821 158.438 100.887C158.572 100.921 158.622 100.954 158.588 100.987C158.588 100.987 158.655 100.987 158.788 100.987C158.788 100.987 158.788 101.004 158.788 101.037C158.788 101.037 158.805 101.037 158.838 101.037C158.905 101.004 158.972 101.004 159.038 101.037C159.105 101.037 159.172 101.021 159.238 100.987H159.438C159.672 100.987 159.922 100.954 160.188 100.887L160.938 100.687C161.172 100.654 161.388 100.587 161.588 100.487C161.788 100.387 161.972 100.287 162.138 100.187C162.172 100.187 162.272 100.137 162.438 100.037C162.605 99.9039 162.805 99.7705 163.038 99.6372C163.005 99.5372 162.988 99.4039 162.988 99.2372C162.988 99.1372 163.038 99.0872 163.138 99.0872C163.238 99.0539 163.305 99.0039 163.338 98.9372C163.238 98.8705 163.105 98.8372 162.938 98.8372C162.805 98.8372 162.755 98.7872 162.788 98.6872C162.655 97.9539 162.455 97.2872 162.188 96.6872C161.955 96.0872 161.672 95.4205 161.338 94.6872C161.305 94.5872 161.238 94.4205 161.138 94.1872C161.038 93.9539 160.972 93.7705 160.938 93.6372C160.938 93.6039 160.972 93.6039 161.038 93.6372C161.105 93.6372 161.122 93.6205 161.088 93.5872C161.055 93.4205 161.022 93.2539 160.988 93.0872C160.988 92.9205 160.972 92.7705 160.938 92.6372C160.905 92.5705 160.938 92.5205 161.038 92.4872C161.138 92.4539 161.172 92.4039 161.138 92.3372C161.105 92.2705 161.038 92.2539 160.938 92.2872C160.838 92.3205 160.772 92.3039 160.738 92.2372L160.588 91.6372C160.588 91.4705 160.555 91.3705 160.488 91.3372C160.455 91.3039 160.488 91.2372 160.588 91.1372C160.655 91.1039 160.688 91.0539 160.688 90.9872C160.688 90.8872 160.705 90.8205 160.738 90.7872C160.905 90.6872 160.972 90.5705 160.938 90.4372C160.905 90.2705 160.938 90.1205 161.038 89.9872C161.138 89.8539 161.222 89.7372 161.288 89.6372C161.355 89.5039 161.455 89.4205 161.588 89.3872C161.688 89.3205 161.722 89.3372 161.688 89.4372C161.655 89.5372 161.655 89.5872 161.688 89.5872C161.855 89.5872 161.922 89.5039 161.888 89.3372C161.855 89.1705 161.905 89.0205 162.038 88.8872C162.272 88.6872 162.622 88.5205 163.088 88.3872C163.555 88.2539 163.905 88.1705 164.138 88.1372C164.205 88.1372 164.255 88.1372 164.288 88.1372C164.355 88.1039 164.405 88.0872 164.438 88.0872C164.605 88.0872 164.772 88.1039 164.938 88.1372C165.138 88.1705 165.322 88.2039 165.488 88.2372C165.622 88.2705 165.822 88.4039 166.088 88.6372C166.355 88.8372 166.555 88.8872 166.688 88.7872C166.988 88.5205 167.305 88.2872 167.638 88.0872C168.005 87.8872 168.238 87.8039 168.338 87.8372C168.605 87.8705 168.838 87.9539 169.038 88.0872C169.238 88.1872 169.305 88.5205 169.238 89.0872C169.205 89.2872 169.122 89.4539 168.988 89.5872C168.888 89.6872 168.788 89.8205 168.688 89.9872L168.338 90.4872C168.205 90.7205 168.038 90.9539 167.838 91.1872C167.672 91.4205 167.522 91.5705 167.388 91.6372C167.255 91.7039 167.122 91.8205 166.988 91.9872C166.888 92.1205 166.755 92.2539 166.588 92.3872C166.422 92.5205 166.238 92.6205 166.038 92.6872C165.872 92.7205 165.755 92.7539 165.688 92.7872C165.588 92.8205 165.438 92.8372 165.238 92.8372C165.072 92.8039 165.022 92.7372 165.088 92.6372C165.155 92.6039 165.172 92.5705 165.138 92.5372C165.105 92.4705 165.088 92.4205 165.088 92.3872C165.088 92.3205 165.122 92.2705 165.188 92.2372C165.288 92.2039 165.355 92.1539 165.388 92.0872C165.422 92.0539 165.505 91.9372 165.638 91.7372C165.805 91.5372 165.872 91.4205 165.838 91.3872C165.838 91.2872 165.872 91.2039 165.938 91.1372C165.938 91.0705 165.938 91.0205 165.938 90.9872C165.938 90.9205 165.972 90.8705 166.038 90.8372C166.172 90.8039 166.238 90.7539 166.238 90.6872V90.0872C166.238 89.9539 166.222 89.8205 166.188 89.6872C166.188 89.5539 166.155 89.4372 166.088 89.3372C165.822 89.0039 165.388 88.8372 164.788 88.8372C164.355 88.8372 163.938 88.9372 163.538 89.1372C163.105 89.3372 162.738 89.6705 162.438 90.1372C162.205 90.4705 162.088 90.8205 162.088 91.1872C162.088 91.4539 162.138 91.7205 162.238 91.9872C162.372 92.2539 162.488 92.5039 162.588 92.7372C162.688 92.9705 162.822 93.2539 162.988 93.5872C163.188 93.9205 163.338 94.1872 163.438 94.3872C163.605 94.6539 163.788 94.9705 163.988 95.3372C164.188 95.6705 164.338 95.9872 164.438 96.2872C164.472 96.3205 164.438 96.3539 164.338 96.3872C164.272 96.3872 164.255 96.4205 164.288 96.4872C164.322 96.5539 164.372 96.5872 164.438 96.5872C164.505 96.5872 164.555 96.6205 164.588 96.6872C164.655 96.7872 164.655 96.8705 164.588 96.9372C164.555 97.0039 164.555 97.1039 164.588 97.2372C164.588 97.2705 164.622 97.3039 164.688 97.3372C164.755 97.3705 164.788 97.4039 164.788 97.4372C164.955 97.8705 165.038 98.2205 165.038 98.4872C165.338 98.3205 165.672 98.1205 166.038 97.8872C166.405 97.6539 166.605 97.4372 166.638 97.2372C166.672 97.1705 166.722 97.1539 166.788 97.1872C166.888 97.1872 166.938 97.2205 166.938 97.2872C166.905 97.5205 166.622 97.8372 166.088 98.2372C165.588 98.6372 165.205 98.9205 164.938 99.0872C164.972 99.1205 164.955 99.2039 164.888 99.3372C164.822 99.4705 164.805 99.5705 164.838 99.6372C164.838 99.6705 164.822 99.7205 164.788 99.7872C164.755 99.8205 164.722 99.8705 164.688 99.9372C164.688 100.071 164.655 100.171 164.588 100.237V100.337L164.438 100.437C164.405 100.471 164.355 100.554 164.288 100.687C164.255 100.787 164.205 100.871 164.138 100.937H163.988C163.922 101.004 163.888 101.087 163.888 101.187C163.822 101.287 163.672 101.404 163.438 101.537C163.205 101.637 163.055 101.737 162.988 101.837C162.988 101.837 162.972 101.837 162.938 101.837C162.905 101.837 162.855 101.871 162.788 101.937H162.638C162.605 101.937 162.572 101.971 162.538 102.037C162.505 102.071 162.472 102.104 162.438 102.137C162.338 102.137 162.288 102.171 162.288 102.237C162.155 102.237 162.055 102.254 161.988 102.287L161.488 102.387C161.355 102.521 161.238 102.587 161.138 102.587L161.088 102.537C161.022 102.604 160.972 102.637 160.938 102.637H160.738C160.705 102.637 160.672 102.654 160.638 102.687C160.605 102.721 160.572 102.737 160.538 102.737H160.438C160.405 102.737 160.372 102.737 160.338 102.737C160.338 102.771 160.305 102.787 160.238 102.787C160.138 102.787 159.988 102.787 159.788 102.787C159.622 102.787 159.488 102.804 159.388 102.837ZM158.888 102.387C158.888 102.387 158.922 102.387 158.988 102.387C159.088 102.354 159.155 102.337 159.188 102.337C159.355 102.337 159.505 102.354 159.638 102.387C159.772 102.387 159.905 102.387 160.038 102.387C160.105 102.387 160.138 102.354 160.138 102.287H160.238C160.338 102.187 160.388 102.171 160.388 102.237C160.422 102.304 160.472 102.304 160.538 102.237C160.605 102.237 160.638 102.221 160.638 102.187L160.838 102.087C160.872 102.087 160.888 102.087 160.888 102.087C160.888 102.054 160.905 102.037 160.938 102.037H161.038C161.105 102.037 161.172 102.004 161.238 101.937C161.305 101.871 161.338 101.837 161.338 101.837C161.338 101.837 161.388 101.787 161.488 101.687C161.488 101.687 161.505 101.687 161.538 101.687C161.572 101.654 161.605 101.637 161.638 101.637C161.705 101.571 161.772 101.537 161.838 101.537C161.838 101.504 161.872 101.471 161.938 101.437C162.005 101.371 162.038 101.337 162.038 101.337C162.072 101.304 162.105 101.287 162.138 101.287C162.205 101.254 162.238 101.221 162.238 101.187C162.305 101.187 162.438 101.071 162.638 100.837C162.838 100.604 162.972 100.321 163.038 99.9872C163.038 99.9205 162.938 99.9705 162.738 100.137C162.538 100.271 162.438 100.337 162.438 100.337C162.338 100.371 162.238 100.437 162.138 100.537C162.038 100.604 161.955 100.637 161.888 100.637C161.855 100.637 161.805 100.671 161.738 100.737C161.705 100.771 161.672 100.787 161.638 100.787C161.605 100.787 161.588 100.804 161.588 100.837C161.588 100.837 161.555 100.821 161.488 100.787C161.455 100.854 161.355 100.921 161.188 100.987C161.022 101.054 160.905 101.087 160.838 101.087H160.688L160.638 101.137C160.638 101.137 160.622 101.154 160.588 101.187C160.555 101.187 160.522 101.187 160.488 101.187L160.138 101.237H160.088C160.055 101.237 160.022 101.254 159.988 101.287C159.855 101.287 159.705 101.304 159.538 101.337C159.372 101.371 159.272 101.387 159.238 101.387H159.188C159.188 101.354 159.172 101.337 159.138 101.337V101.387H158.888C158.788 101.387 158.672 101.371 158.538 101.337C158.438 101.271 158.355 101.237 158.288 101.237C158.255 101.237 158.238 101.254 158.238 101.287C158.238 101.287 158.222 101.287 158.188 101.287H158.088C158.055 101.287 158.038 101.271 158.038 101.237H157.788C157.788 101.137 157.755 101.121 157.688 101.187H157.638C157.505 101.187 157.388 101.137 157.288 101.037C157.222 100.937 157.105 100.887 156.938 100.887L156.788 100.737C156.788 100.771 156.772 100.804 156.738 100.837C156.738 100.837 156.738 100.854 156.738 100.887C156.738 100.887 156.755 100.921 156.788 100.987C156.855 101.021 156.888 101.054 156.888 101.087L156.988 101.287L157.188 101.537L157.288 101.637C157.322 101.671 157.338 101.687 157.338 101.687C157.372 101.687 157.405 101.721 157.438 101.787C157.505 101.787 157.538 101.837 157.538 101.937C158.105 102.237 158.555 102.387 158.888 102.387Z" fill="#454545"/>
<path d="M64.7529 5.85429C64.3531 6.14765 64.3356 8.18219 64.6966 9.89664C65.1861 12.1835 66.0967 14.2037 67.7539 16.722C69.7856 19.7926 69.7643 19.7659 69.2343 19.2927C68.4647 18.5737 63.8434 12.1986 61.1477 8.13025C60.5263 7.18587 59.8299 6.25711 59.5848 6.05917C59.2064 5.74891 59.1768 5.79399 59.1986 6.86325C59.3266 10.3692 60.4869 12.7576 63.5541 15.7292C65.5484 17.656 66.7323 19.0046 65.7915 18.2901C64.3845 17.1825 61.5356 14.43 58.499 11.1952C57.4344 10.0786 56.1616 8.86523 55.6899 8.51996C54.9248 7.97121 54.8073 7.93344 54.6452 8.27844C54.5239 8.48267 54.765 9.55294 55.2271 10.8184C55.8372 12.4888 56.3596 13.446 57.5351 14.8663C58.9844 16.6576 63.0488 20.2775 64.801 21.3521C65.5291 21.7996 65.8851 22.3012 65.4521 22.2514C64.8506 22.1821 61.9548 20.8788 59.3163 19.4597C57.5715 18.5315 56.0505 17.7744 55.9062 17.7578C55.3288 17.6913 55.6089 18.4267 56.5957 19.5828C57.7981 20.982 59.8184 22.4754 62.3635 23.8595C63.3747 24.3881 64.223 24.8495 64.2443 24.8762C64.2656 24.9029 63.3995 24.8031 62.3169 24.6784C60.0554 24.418 58.2647 24.7209 56.9448 25.5872L56.0729 26.1656L60.0055 26.5215C62.2725 26.7341 64.3119 27.0175 64.7763 27.2164C65.5424 27.5471 65.4942 27.5415 64.0239 27.3965C61.3239 27.134 55.9685 27.8992 55.6444 28.5892C55.5415 28.8441 56.0921 28.9317 58.6081 29.1002C60.9797 29.2521 62.2973 29.4524 64.0923 29.95C65.3663 30.3149 66.4692 30.6844 66.5117 30.7378C66.5783 30.7939 65.3754 30.6554 63.8709 30.3852C62.1018 30.0844 60.4093 29.9623 59.1842 30.0151C57.004 30.1035 54.3054 30.6655 54.3118 31.0299C54.295 31.1734 56.2483 31.5681 59.2712 31.989C64.6407 32.777 66.5263 33.3336 69.2628 34.958C70.9937 36.0059 70.8567 36.1356 69.0666 35.1778C64.7342 32.8121 58.3236 32.1708 53.984 33.6348C53.4509 33.8159 53.0085 34.0559 52.9974 34.1515C52.9862 34.2472 53.6634 34.7131 54.5358 35.1773C58.0143 37.1295 60.7146 39.0649 63.3563 41.5026C64.7651 42.8044 68.7997 47.0996 68.7802 47.2671C68.7635 47.4106 68.942 47.5524 65.1698 44.3541C58.8879 39.0485 56.5992 37.7666 41.4179 30.9997C37.5239 29.2663 32.4345 26.9103 30.0809 25.7664C21.0134 21.3522 19.8938 21.1263 24.7393 24.7391C26.8049 26.262 31.7274 29.423 35.9497 31.8973C37.3873 32.7417 35.2834 31.9661 29.8433 29.6909C23.1033 26.854 19.211 25.3147 17.1625 24.6909C16.3853 24.4559 15.5147 24.1859 15.2343 24.0809C14.2009 23.7437 14.6633 24.3788 16.0741 25.2444C16.8475 25.7214 20.7876 27.8965 24.8296 30.0348C32.7691 34.2949 36.2818 36.3723 35.6155 36.4411C35.3934 36.464 33.4412 35.8512 31.2679 35.0433C20.1154 30.9466 11.718 28.5249 11.6205 29.3622C11.5592 29.8885 19.9948 33.8663 26.7599 36.488C32.3796 38.6868 31.9873 38.4962 31.3977 38.7435C30.91 38.954 19.7638 37.5249 16.1192 36.79C12.0202 35.9785 17.8979 38.4737 24.3672 40.2855C29.2525 41.6724 32.0394 42.2358 36.6826 42.7706C39.1605 43.0559 41.1221 43.3788 41.036 43.4901C40.9527 43.5775 40.5085 43.6233 40.0514 43.5707C38.2471 43.3629 25.7633 43.1617 24.1124 43.311C22.2394 43.4832 21.3315 43.7423 21.4637 44.0727C21.8372 44.8431 31.1955 46.5511 36.2173 46.7658C39.2255 46.894 44.6852 46.6985 45.3257 46.4328C45.5052 46.3565 45.5265 46.3832 45.3386 46.5313C45.2016 46.661 43.3914 47.1314 41.3138 47.5952C33.3272 49.3908 28.9775 50.7325 29.1216 51.3794C29.2786 52.1248 32.4748 52.105 42.1469 51.3278C48.9641 50.7795 48.8651 50.7923 48.8261 51.1272C48.7955 51.3904 47.1185 51.9731 42.3431 53.4112C37.4418 54.8833 34.4543 56.0424 34.8595 56.3315C35.6245 56.8802 41.2184 56.5789 46.3443 55.6903C48.1109 55.3846 49.5693 55.2132 49.5582 55.3089C49.547 55.4046 47.8986 56.1603 45.9023 56.9729C41.4516 58.7635 38.4972 60.2659 38.4443 60.7204C38.422 60.9118 38.4987 61.0904 38.619 61.1042C39.9181 61.2538 47.7795 59.9045 51.7053 58.8534C52.9371 58.5346 54.1365 58.2848 54.3289 58.307C54.9517 58.4029 51.4047 60.8068 48.5337 62.2218C44.1318 64.4302 42.7989 65.198 42.7543 65.5808C42.6986 66.0593 43.2687 65.9795 46.5808 65.1729C49.6709 64.3893 51.9744 63.6606 53.7487 62.8709C56.2679 61.7548 55.9263 62.1761 51.634 65.5367C48.2036 68.1964 47.0214 69.3452 47.322 69.695C47.7021 70.1995 53.9215 67.6669 57.0491 65.7239C57.996 65.1299 58.8808 64.6499 59.0011 64.6637C59.6266 64.7358 58.2563 66.663 55.4095 69.7536C53.2617 72.0762 53.1597 72.7433 54.9949 72.0576C56.0398 71.6688 57.7485 70.6049 59.8284 69.0745C61.0817 68.1521 61.6259 67.8754 62.2033 67.9419C63.1897 68.0555 63.5845 68.8525 63.4006 70.4315C63.1749 72.3693 62.5635 73.8505 61.082 76.1044C57.5672 81.3728 54.1595 84.8837 50.4266 86.9995C48.6782 87.9861 48.5949 88.0735 49.2121 88.2173C50.1123 88.4422 53.1933 87.3181 55.2185 86.0482C56.1386 85.4753 56.9401 85.0827 56.9826 85.1361C57.3896 85.6194 52.9443 89.6654 46.3731 94.8001C43.1037 97.3329 40.5155 99.4593 40.5793 99.5394C40.8743 99.937 45.278 97.9227 47.8429 96.2058C48.8435 95.5695 49.5784 95.1207 49.4682 95.2293C48.4165 96.5143 37.1725 109.742 35.5107 111.66C29.6837 118.359 24.6925 122.488 17.361 126.614C14.5935 128.186 12.0388 130.025 12.195 130.358C12.4123 130.796 13.7393 130.706 17.1125 130.003C23.3073 128.729 25.4619 127.813 28.8425 124.954C33.1627 121.354 37.3243 116.184 41.6719 108.999C42.4562 107.708 43.159 106.698 43.1987 106.775C43.3476 106.962 41.0739 111.622 39.6663 114.078C39.0542 115.147 37.8014 117.112 36.8616 118.483C34.8394 121.402 34.5532 121.975 35.0344 122.03C35.4193 122.074 38.748 119.451 40.1375 117.987C42.887 115.103 46.0111 110.469 52.8821 98.9924C57.513 91.2583 58.5501 89.6807 58.5979 90.3165C58.6172 90.7794 50.5029 110.21 49.3693 112.407C48.9267 113.278 48.0238 114.749 47.3831 115.645C46.7396 116.565 46.2784 117.385 46.3422 117.465C46.555 117.732 48.7091 115.774 49.7183 114.435C52.6116 110.526 60.7211 93.8583 62.5964 88.0131C63.0143 86.7278 63.3831 85.655 63.4099 85.6339C63.4367 85.6127 63.1376 88.3906 62.7364 91.8356C62.1541 96.8357 62.0497 98.5693 62.1748 100.426C62.4885 104.851 63.0012 106.728 63.6549 105.931C64.1335 105.38 64.5542 104.07 65.1326 101.615C65.6815 99.2057 67.2206 89.7579 67.6319 86.4353C67.749 85.4305 67.9186 84.6015 68.0389 84.6153C68.1352 84.6264 68.4575 86.0455 68.7705 87.7544C69.4352 91.4676 70.229 93.8623 71.2658 95.2181C72.1721 96.4377 72.7865 96.6055 72.8979 95.6485C72.9397 95.2897 72.6926 93.2247 72.3632 91.029C72.031 88.8572 71.7276 86.2281 71.6762 85.2039C71.556 82.8868 72.0448 80.155 72.7615 79.0253C73.3217 78.1928 73.7401 77.95 73.6732 78.5242C73.5311 79.7443 73.6982 82.9153 73.919 83.7408C74.1527 84.6648 75.0841 85.6691 75.7337 85.7439C76.1427 85.791 76.0994 85.3254 75.6337 83.6716C75.2207 82.1936 75.2139 80.7866 75.6307 79.7194C75.9364 78.9788 76.2833 79.14 76.1858 79.9773C76.08 80.8864 76.4403 82.1886 76.9407 82.7069C77.3532 83.1423 78.9031 83.442 79.0411 83.0942C79.1031 82.9802 78.7359 82.5742 78.2401 82.2262C77.7017 81.8247 77.5103 81.5845 77.7749 81.615C78.2801 81.6731 79.4855 82.4181 80.0257 83.0137C80.2625 83.2834 80.615 83.3967 81.0351 83.3481C81.5811 83.2655 81.6449 83.3456 81.5808 83.8959C81.4917 84.6614 82.0108 84.6 82.4211 83.7987C82.8369 82.9495 82.6587 82.1774 81.744 81.0295C80.6009 79.5402 78.9847 78.554 77.0768 78.1888C76.1681 78.0357 75.4631 77.809 75.4743 77.7133C75.4882 77.5937 76.1649 77.017 76.9943 76.3852C78.865 74.9763 81.7449 72.2289 82.9235 70.6917C84.0457 69.2208 85.3165 68.5671 89.5672 67.2383C93.7188 65.9223 94.2927 65.6005 95.2409 64.158C96.3048 62.5592 96.8953 62.0938 98.9935 61.2445C99.9902 60.8501 101.081 60.2727 101.433 59.9738L102.083 59.4183L101.723 58.5283C100.684 55.9357 98.4104 54.9465 92.6937 54.6275C90.6857 54.4933 87.6914 54.2454 86.0582 54.0331C82.6929 53.6213 82.8715 53.7631 81.5291 50.8446C80.3799 48.3605 80.0771 46.774 80.0511 42.6009C79.9795 36.7255 79.743 35.8255 76.1697 28.4073C73.5024 22.8391 73.1595 21.8055 71.7668 15.3416C70.8719 11.0927 70.1513 8.48827 69.7739 7.95993C69.5427 7.64236 69.137 8.61391 68.9977 9.8101C68.8027 11.4848 69.3874 14.0008 70.5337 16.5088C71.4074 18.4277 71.4046 18.4516 70.674 17.3977C69.752 16.1036 67.89 12.204 66.8604 9.32151C65.7355 6.2099 65.263 5.45238 64.7529 5.85429ZM101.547 58.9929C101.456 59.7824 101.029 60.0969 99.1426 60.801C96.8705 61.6788 96.417 62.0145 95.0818 63.8488C94.5328 64.5856 93.9255 65.1945 93.7034 65.2175C93.4572 65.2376 92.8059 64.9686 92.2351 64.6362C91.3202 64.1187 91.2194 63.9374 91.2946 63.2914C91.342 62.8847 91.7254 62.1046 92.1291 61.5692L92.8772 60.5886L92.4353 59.5679C92.0729 58.7019 92.0711 58.5077 92.3748 58.2032C92.7053 57.8776 93.1411 57.9036 95.6264 58.3353C97.2299 58.5927 99.013 58.7738 99.6284 58.7234C101.255 58.5713 101.592 58.6101 101.547 58.9929Z" fill="#454545"/>
<path d="M95.698 59.6042C95.909 59.677 96.0708 59.9623 96.0429 60.2016C96.0123 60.4647 95.7836 60.7536 95.5532 60.8483C95.1672 61.022 95.1885 61.0487 95.739 61.1363C96.2442 61.1945 96.4534 61.0732 96.6239 60.6564C96.9083 59.8891 96.7039 59.5503 95.9313 59.4856C95.5195 59.4624 95.4177 59.4992 95.698 59.6042Z" fill="#454545"/>
<path d="M102.35 60.6854C102.318 60.7544 102.43 61.2523 102.561 61.8008C103.046 63.9174 102.242 66.6372 100.86 67.6175C100.331 67.9688 100.307 67.966 100.235 67.3274C100.181 66.9574 99.7789 66.0141 99.3332 65.2354C98.9116 64.4595 98.5677 63.6441 98.5928 63.4288C98.6179 63.2135 98.5366 62.8647 98.4386 62.6595C98.102 61.9903 98.3205 63.8823 98.6875 64.9186C98.8936 65.4515 99.0275 65.976 99.0108 66.1196C98.9746 66.4306 96.0877 66.0981 95.2365 65.6607L94.5908 65.3439L95.0587 65.9311C95.6728 66.7292 97.8851 67.2022 98.8181 66.7278C99.4401 66.4115 99.4613 66.4382 99.536 67.0529C99.5905 67.4228 99.4699 68.0393 99.2514 68.4505C98.7411 69.4828 98.7836 69.5361 99.574 69.2393C100.619 68.8505 102.174 67.4294 102.633 66.4156C103.185 65.2426 103.247 62.8253 102.758 61.581C102.53 61.0214 102.358 60.6137 102.35 60.6854Z" fill="#454545"/>
</svg>
